<?xml version="1.0" encoding="UTF-8" standalone="no"?>
<!-- Created with Inkscape (http://www.inkscape.org/) -->

<svg
   width="1083.7333mm"
   height="1083.7333mm"
   viewBox="0 0 1083.7333 1083.7333"
   version="1.1"
   id="svg1"
   xml:space="preserve"
   sodipodi:docname="LSN-Logo-1024.svg"
   inkscape:version="1.4.2 (ebf0e940d0, 2025-05-08)"
   inkscape:export-filename="LSN-Logo-1024.png"
   inkscape:export-xdpi="96"
   inkscape:export-ydpi="96"
   xmlns:inkscape="http://www.inkscape.org/namespaces/inkscape"
   xmlns:sodipodi="http://sodipodi.sourceforge.net/DTD/sodipodi-0.dtd"
   xmlns="http://www.w3.org/2000/svg"
   xmlns:svg="http://www.w3.org/2000/svg"><sodipodi:namedview
     id="namedview1"
     pagecolor="#ffffff"
     bordercolor="#000000"
     borderopacity="0.25"
     inkscape:showpageshadow="2"
     inkscape:pageopacity="0.0"
     inkscape:pagecheckerboard="0"
     inkscape:deskcolor="#d1d1d1"
     inkscape:document-units="mm"
     inkscape:zoom="0.26171239"
     inkscape:cx="6574.0106"
     inkscape:cy="689.68841"
     inkscape:window-width="1704"
     inkscape:window-height="996"
     inkscape:window-x="0"
     inkscape:window-y="0"
     inkscape:window-maximized="1"
     inkscape:current-layer="g9-3"><inkscape:page
       x="0"
       y="0"
       width="1083.7333"
       height="1083.7333"
       id="page2"
       margin="0"
       bleed="0" /><inkscape:page
       x="-1166.6575"
       y="-6.1035156e-05"
       width="1083.7334"
       height="1083.7334"
       id="page3"
       margin="0"
       bleed="0" /><inkscape:page
       x="-2396.2229"
       y="6.0159289e-14"
       width="1083.7334"
       height="1083.7334"
       id="page9"
       margin="0"
       bleed="0"
       inkscape:export-filename="Page 2.png"
       inkscape:export-xdpi="96"
       inkscape:export-ydpi="96" /><inkscape:page
       x="1564.1217"
       y="-17.156715"
       width="541.8667"
       height="304.80002"
       id="page4"
       margin="0"
       bleed="0"
       inkscape:export-filename="Page 4.png"
       inkscape:export-xdpi="96"
       inkscape:export-ydpi="96" /></sodipodi:namedview><defs
     id="defs1" /><g
     id="layer1"
     style="display:inline"
     inkscape:label="Logo"><g
       id="g9"
       inkscape:label="Logo"
       style="display:inline"
       transform="translate(-4.4264811,29.605736)"><path
         style="display:inline;fill:#d02329;fill-opacity:1;stroke-width:0.264583"
         d="m 399.16724,545.66687 c 0,0 -50.76099,-26.10067 -33.81327,-67.98854 16.9892,-41.99041 78.39429,-12.8339 92.2923,-5.57285 1.56307,0.81663 3.47246,0.24865 4.39438,-1.25451 5.51017,-8.98417 25.52393,-36.55054 62.13469,-33.52213 2.63809,0.21822 3.77993,-1.35481 2.69929,-3.77163 -5.69325,-12.73282 -20.01168,-50.77783 -1.21397,-76.39887 0.99956,-1.36239 0.80183,-3.29657 -0.78496,-3.85981 -16.09395,-5.71262 -39.43566,36.60533 -82.60812,43.18333 -78.40102,11.94562 -178.62637,7.86389 -182.04282,101.58274 -2.96823,81.42332 56.76503,114.64616 88.74025,133.90983 31.97522,19.26367 38.51165,42.94318 27.98115,63.5572 -9.75123,19.08855 -42.88562,23.68291 -63.01538,14.99053 -1.198,-0.51731 -3.09194,-1.46835 -4.2032,-2.15202 -12.85681,-7.90973 -17.8962,-25.29902 -18.6469,-42.45515 -0.057,-1.30384 -1.15793,-2.60962 -2.40618,-2.29583 -3.22123,0.80977 -10.11575,4.54271 -22.69862,19.55163 -23.84311,28.4402 -26.673,-1.72194 -49.46416,15.26323 -18.50609,13.79171 -0.51714,51.5644 16.39384,67.27126 31.67293,29.41771 108.46223,69.93739 184.85465,22.89484 99.63644,-61.35624 87.96374,-184.97386 29.35849,-218.80961"
         id="path1"
         transform="matrix(1.3728146,0,0,1.3878351,-264.36332,-220.74591)" /><path
         style="fill:#000000;stroke-width:0.365205"
         d="m 392.08674,916.79044 0.0694,-67.37646 c 0,0 67.27556,-78.48895 58.73893,-164.39719 -8.53663,-85.90817 -58.73893,-129.25694 -58.73893,-129.25694 v -62.54163 c 0,-37.313 18.45564,-57.92957 43.61723,-68.13688 25.16159,-10.20731 54.18405,-9.65487 76.43975,12.7822 l 194.96016,196.54888 c 18.8469,19.00048 37.63157,34.12269 74.94702,30.79415 37.31545,-3.32857 49.16707,-20.30272 66.94827,-38.27847 25.40139,-25.67933 76.20421,-77.03797 76.20421,-77.03797 l 7.65171,7.73542 V 917.89997 H 808.18624 L 519.01568,625.56549 v 290.89352 z"
         id="path2" /><path
         style="fill:#000000;stroke-width:0.365205"
         d="m 492.60821,359.39756 222.63183,225.06772 c 13.57607,13.72461 33.46089,24.43746 52.94128,25.10033 20.57402,0.70008 43.24721,-7.67551 57.55008,-22.64862 l 97.97235,-102.56338 c 0,0 20.06465,22.54893 32.80494,35.42862 17.17864,17.36663 68.39411,31.72326 94.97611,5.14126 26.582,-26.582 22.9634,-71.28898 3.0761,-89.65035 -19.112,-17.64554 -41.154,-41.60426 -41.154,-41.60426 -10.0157,-10.12533 -5.6308,-6.36767 -33.85153,-34.89723 -28.2208,-28.52955 -76.43844,-20.79977 -116.56352,13.41327 l -45.79783,39.04995 c -12.01089,10.2412 -30.8963,20.69236 -48.04892,19.1707 -27.18025,-2.41125 -46.13685,-19.53588 -69.74173,-43.31961 L 584.22803,271.03794 c -20.83223,-20.99007 -70.22212,-23.70457 -93.06235,-0.85355 -22.84022,22.85101 -29.14924,58.28668 1.44253,89.21317 z"
         id="path3" /><ellipse
         style="fill:#000000;stroke-width:0.365205"
         id="path4"
         cx="518.80023"
         cy="172.13174"
         rx="64.800896"
         ry="65.509911" /></g></g><g
     id="g7"
     style="display:inline"
     inkscape:label="Logo-Inverted"
     transform="translate(-11.437818,-6.1035155e-5)"><rect
       style="fill:#000000;stroke-width:17.646;stroke-linecap:round;stroke-linejoin:round;paint-order:markers stroke fill;fill-opacity:1"
       id="rect1"
       width="1083.7333"
       height="1083.7333"
       x="-1166.6575"
       y="-6.1035153e-05"
       transform="translate(11.437818,6.1035155e-5)" /><g
       id="g8"
       inkscape:label="Inverted"
       transform="translate(-74.484503,29.605782)"><path
         style="display:inline;fill:#d02329;fill-opacity:1;stroke-width:0.365205"
         d="m -801.54235,536.54973 c 0,0 -69.68543,-36.22343 -46.41935,-94.35689 23.32302,-58.27576 107.62083,-17.81133 126.70022,-7.73419 2.1458,1.13334 4.76704,0.34508 6.03267,-1.74106 7.56444,-12.46854 35.03962,-50.72612 85.29941,-46.52319 3.62161,0.30286 5.18914,-1.88025 3.70562,-5.2344 -7.81578,-17.67105 -27.47232,-70.47125 -1.66655,-106.02903 1.37221,-1.89077 1.10076,-4.5751 -1.07761,-5.35678 -22.09401,-7.92817 -54.13785,50.80216 -113.40563,59.93134 -107.63007,16.57855 -245.22089,10.91378 -249.91104,140.98009 -4.07483,113.00215 77.92786,159.10997 121.82391,185.84477 43.89605,26.73479 52.86935,59.59805 38.41293,88.20691 -13.38663,26.49176 -58.87401,32.86797 -86.50843,20.80438 -1.64464,-0.71794 -4.24467,-2.03782 -5.77022,-2.98665 -17.65002,-10.9774 -24.56816,-35.11086 -25.59874,-58.92074 -0.0783,-1.80952 -1.58962,-3.62173 -3.30323,-3.18624 -4.42216,1.12383 -13.88705,6.30454 -31.161,27.13444 -32.73221,39.47031 -36.61711,-2.38977 -67.90511,21.18285 -25.4054,19.14062 -0.7099,71.56288 22.5057,93.36141 43.48105,40.82693 148.89852,97.06157 253.77115,31.77427 136.78236,-85.15235 120.75791,-256.71322 40.30377,-303.67166"
         id="path5" /><path
         style="fill:#ffffff;fill-opacity:1;stroke-width:0.365205"
         d="m -693.0749,916.79044 0.0694,-67.37646 c 0,0 67.27556,-78.48895 58.73893,-164.39719 -8.53663,-85.90817 -58.73893,-129.25694 -58.73893,-129.25694 v -62.54163 c 0,-37.313 18.45564,-57.92957 43.61723,-68.13688 25.16159,-10.20731 54.18405,-9.65487 76.43975,12.7822 l 194.96016,196.54888 c 18.8469,19.00048 37.63157,34.12269 74.94702,30.79415 37.31545,-3.32857 49.16707,-20.30272 66.94827,-38.27847 25.40139,-25.67933 76.20421,-77.03797 76.20421,-77.03797 l 7.65171,7.73542 V 917.89997 H -276.9754 L -566.14596,625.56549 v 290.89352 z"
         id="path6" /><path
         style="fill:#ffffff;fill-opacity:1;stroke-width:0.365205"
         d="m -592.55343,359.39756 222.63183,225.06772 c 13.57607,13.72461 33.46089,24.43746 52.94128,25.10033 20.57402,0.70008 43.24721,-7.67551 57.55008,-22.64862 l 97.97235,-102.56338 c 0,0 20.06465,22.54893 32.80494,35.42862 17.17864,17.36663 68.394107,31.72326 94.976107,5.14126 26.5820001,-26.582 22.9634,-71.28898 3.0761,-89.65035 -19.112,-17.64554 -41.154,-41.60426 -41.154,-41.60426 -10.0157,-10.12533 -5.6308,-6.36767 -33.851527,-34.89723 -28.2208,-28.52955 -76.43844,-20.79977 -116.56352,13.41327 l -45.79783,39.04995 c -12.01089,10.2412 -30.8963,20.69236 -48.04892,19.1707 -27.18025,-2.41125 -46.13685,-19.53588 -69.74173,-43.31961 L -500.93361,271.03794 c -20.83223,-20.99007 -70.22212,-23.70457 -93.06235,-0.85355 -22.84022,22.85101 -29.14924,58.28668 1.44253,89.21317 z"
         id="path7" /><ellipse
         style="fill:#ffffff;fill-opacity:1;stroke-width:0.365205"
         id="ellipse7"
         cx="-566.36139"
         cy="172.13174"
         rx="64.800896"
         ry="65.509911" /></g></g><g
     id="g12"
     style="display:inline"
     inkscape:label="Logo-Inverted-Vanilla"><rect
       style="fill:#000000;stroke-width:17.646;stroke-linecap:round;stroke-linejoin:round;paint-order:markers stroke fill;fill-opacity:1"
       id="rect2"
       width="1083.7333"
       height="1083.7333"
       x="-2396.2227"
       y="6.0159282e-14" /><g
       id="g11"
       inkscape:label="Inverted-Vanilla"
       style="display:inline"
       transform="translate(-2392.7272,29.605721)"><path
         style="display:inline;fill:#d02329;fill-opacity:1;stroke-width:0.264583"
         d="m 399.16724,545.66687 c 0,0 -50.76099,-26.10067 -33.81327,-67.98854 16.9892,-41.99041 78.39429,-12.8339 92.2923,-5.57285 1.56307,0.81663 3.47246,0.24865 4.39438,-1.25451 5.51017,-8.98417 25.52393,-36.55054 62.13469,-33.52213 2.63809,0.21822 3.77993,-1.35481 2.69929,-3.77163 -5.69325,-12.73282 -20.01168,-50.77783 -1.21397,-76.39887 0.99956,-1.36239 0.80183,-3.29657 -0.78496,-3.85981 -16.09395,-5.71262 -39.43566,36.60533 -82.60812,43.18333 -78.40102,11.94562 -178.62637,7.86389 -182.04282,101.58274 -2.96823,81.42332 56.76503,114.64616 88.74025,133.90983 31.97522,19.26367 38.51165,42.94318 27.98115,63.5572 -9.75123,19.08855 -42.88562,23.68291 -63.01538,14.99053 -1.198,-0.51731 -3.09194,-1.46835 -4.2032,-2.15202 -12.85681,-7.90973 -17.8962,-25.29902 -18.6469,-42.45515 -0.057,-1.30384 -1.15793,-2.60962 -2.40618,-2.29583 -3.22123,0.80977 -10.11575,4.54271 -22.69862,19.55163 -23.84311,28.4402 -26.673,-1.72194 -49.46416,15.26323 -18.50609,13.79171 -0.51714,51.5644 16.39384,67.27126 31.67293,29.41771 108.46223,69.93739 184.85465,22.89484 99.63644,-61.35624 87.96374,-184.97386 29.35849,-218.80961"
         id="path9"
         transform="matrix(1.3728146,0,0,1.3878351,-264.36332,-220.74591)" /><path
         style="fill:#ddc6a7;stroke-width:0.365205;fill-opacity:1"
         d="m 392.08674,916.79044 0.0694,-67.37646 c 0,0 67.27556,-78.48895 58.73893,-164.39719 -8.53663,-85.90817 -58.73893,-129.25694 -58.73893,-129.25694 v -62.54163 c 0,-37.313 18.45564,-57.92957 43.61723,-68.13688 25.16159,-10.20731 54.18405,-9.65487 76.43975,12.7822 l 194.96016,196.54888 c 18.8469,19.00048 37.63157,34.12269 74.94702,30.79415 37.31545,-3.32857 49.16707,-20.30272 66.94827,-38.27847 25.40139,-25.67933 76.20421,-77.03797 76.20421,-77.03797 l 7.65171,7.73542 V 917.89997 H 808.18624 L 519.01568,625.56549 v 290.89352 z"
         id="path10" /><path
         style="fill:#ddc6a7;stroke-width:0.365205;fill-opacity:1"
         d="m 492.60821,359.39756 222.63183,225.06772 c 13.57607,13.72461 33.46089,24.43746 52.94128,25.10033 20.57402,0.70008 43.24721,-7.67551 57.55008,-22.64862 l 97.97235,-102.56338 c 0,0 20.06465,22.54893 32.80494,35.42862 17.17864,17.36663 68.39411,31.72326 94.97611,5.14126 26.582,-26.582 22.9634,-71.28898 3.0761,-89.65035 -19.112,-17.64554 -41.154,-41.60426 -41.154,-41.60426 -10.0157,-10.12533 -5.6308,-6.36767 -33.85153,-34.89723 -28.2208,-28.52955 -76.43844,-20.79977 -116.56352,13.41327 l -45.79783,39.04995 c -12.01089,10.2412 -30.8963,20.69236 -48.04892,19.1707 -27.18025,-2.41125 -46.13685,-19.53588 -69.74173,-43.31961 L 584.22803,271.03794 c -20.83223,-20.99007 -70.22212,-23.70457 -93.06235,-0.85355 -22.84022,22.85101 -29.14924,58.28668 1.44253,89.21317 z"
         id="path11" /><ellipse
         style="fill:#ddc6a7;stroke-width:0.365205;fill-opacity:1"
         id="ellipse11"
         cx="518.80023"
         cy="172.13174"
         rx="64.800896"
         ry="65.509911" /></g></g><g
     id="g5"
     inkscape:label="Banner"><g
       id="g4"
       inkscape:label="Banner"
       style="stroke:none;stroke-opacity:1;fill:#ddc6a7;fill-opacity:1"><rect
         style="fill:#d02329;fill-opacity:1;stroke-width:17.646;stroke-linecap:round;stroke-linejoin:round;paint-order:markers stroke fill;stroke:none;stroke-opacity:1"
         id="rect4"
         width="541.86664"
         height="304.79999"
         x="1564.1217"
         y="-17.156715" /><g
         id="g9-3"
         inkscape:label="Logo"
         style="display:inline"
         transform="matrix(0.07702319,0,0,0.07702319,1803.226,96.32869)"><path
           style="display:inline;fill:#ffffff;fill-opacity:1;stroke-width:0.264583"
           d="m 399.16724,545.66687 c 0,0 -50.76099,-26.10067 -33.81327,-67.98854 16.9892,-41.99041 78.39429,-12.8339 92.2923,-5.57285 1.56307,0.81663 3.47246,0.24865 4.39438,-1.25451 5.51017,-8.98417 25.52393,-36.55054 62.13469,-33.52213 2.63809,0.21822 3.77993,-1.35481 2.69929,-3.77163 -5.69325,-12.73282 -20.01168,-50.77783 -1.21397,-76.39887 0.99956,-1.36239 0.80183,-3.29657 -0.78496,-3.85981 -16.09395,-5.71262 -39.43566,36.60533 -82.60812,43.18333 -78.40102,11.94562 -178.62637,7.86389 -182.04282,101.58274 -2.96823,81.42332 56.76503,114.64616 88.74025,133.90983 31.97522,19.26367 38.51165,42.94318 27.98115,63.5572 -9.75123,19.08855 -42.88562,23.68291 -63.01538,14.99053 -1.198,-0.51731 -3.09194,-1.46835 -4.2032,-2.15202 -12.85681,-7.90973 -17.8962,-25.29902 -18.6469,-42.45515 -0.057,-1.30384 -1.15793,-2.60962 -2.40618,-2.29583 -3.22123,0.80977 -10.11575,4.54271 -22.69862,19.55163 -23.84311,28.4402 -26.673,-1.72194 -49.46416,15.26323 -18.50609,13.79171 -0.51714,51.5644 16.39384,67.27126 31.67293,29.41771 108.46223,69.93739 184.85465,22.89484 99.63644,-61.35624 87.96374,-184.97386 29.35849,-218.80961"
           id="path1-5"
           transform="matrix(1.3728146,0,0,1.3878351,-264.36332,-220.74591)" /><path
           style="fill:#000000;stroke-width:0.365205"
           d="m 392.08674,916.79044 0.0694,-67.37646 c 0,0 67.27556,-78.48895 58.73893,-164.39719 -8.53663,-85.90817 -58.73893,-129.25694 -58.73893,-129.25694 v -62.54163 c 0,-37.313 18.45564,-57.92957 43.61723,-68.13688 25.16159,-10.20731 54.18405,-9.65487 76.43975,12.7822 l 194.96016,196.54888 c 18.8469,19.00048 37.63157,34.12269 74.94702,30.79415 37.31545,-3.32857 49.16707,-20.30272 66.94827,-38.27847 25.40139,-25.67933 76.20421,-77.03797 76.20421,-77.03797 l 7.65171,7.73542 V 917.89997 H 808.18624 L 519.01568,625.56549 v 290.89352 z"
           id="path2-6" /><path
           style="fill:#000000;stroke-width:0.365205"
           d="m 492.60821,359.39756 222.63183,225.06772 c 13.57607,13.72461 33.46089,24.43746 52.94128,25.10033 20.57402,0.70008 43.24721,-7.67551 57.55008,-22.64862 l 97.97235,-102.56338 c 0,0 20.06465,22.54893 32.80494,35.42862 17.17864,17.36663 68.39411,31.72326 94.97611,5.14126 26.582,-26.582 22.9634,-71.28898 3.0761,-89.65035 -19.112,-17.64554 -41.154,-41.60426 -41.154,-41.60426 -10.0157,-10.12533 -5.6308,-6.36767 -33.85153,-34.89723 -28.2208,-28.52955 -76.43844,-20.79977 -116.56352,13.41327 l -45.79783,39.04995 c -12.01089,10.2412 -30.8963,20.69236 -48.04892,19.1707 -27.18025,-2.41125 -46.13685,-19.53588 -69.74173,-43.31961 L 584.22803,271.03794 c -20.83223,-20.99007 -70.22212,-23.70457 -93.06235,-0.85355 -22.84022,22.85101 -29.14924,58.28668 1.44253,89.21317 z"
           id="path3-2" /><ellipse
           style="fill:#000000;stroke-width:0.365205"
           id="path4-9"
           cx="518.80023"
           cy="172.13174"
           rx="64.800896"
           ry="65.509911" /></g></g></g></svg>
