<?xml version="1.0" encoding="UTF-8" standalone="no"?>
<svg
   id="visual"
   viewBox="0 0 960 540"
   width="960"
   height="540"
   version="1.1"
   sodipodi:docname="hero-waves.svg"
   inkscape:version="1.3.2 (091e20ef0f, 2023-11-25)"
   xmlns:inkscape="http://www.inkscape.org/namespaces/inkscape"
   xmlns:sodipodi="http://sodipodi.sourceforge.net/DTD/sodipodi-0.dtd"
   xmlns="http://www.w3.org/2000/svg"
   xmlns:svg="http://www.w3.org/2000/svg">
  <defs
     id="defs4" />
  <sodipodi:namedview
     id="namedview4"
     pagecolor="#ffffff"
     bordercolor="#000000"
     borderopacity="0.25"
     inkscape:showpageshadow="2"
     inkscape:pageopacity="0.0"
     inkscape:pagecheckerboard="0"
     inkscape:deskcolor="#d1d1d1"
     inkscape:zoom="0.26332362"
     inkscape:cx="683.56952"
     inkscape:cy="594.32572"
     inkscape:window-width="1920"
     inkscape:window-height="1011"
     inkscape:window-x="0"
     inkscape:window-y="0"
     inkscape:window-maximized="1"
     inkscape:current-layer="visual" />
  <g
     id="g1">
    <path
       d="m 0,137 16,-5.3 c 16,-5.4 48.000001,-16 80.000001,-19.5 C 128,108.7 160,112.3 192,120.5 c 32,8.2 64,20.8 96,23.5 32,2.7 64,-4.7 96,-6.5 32,-1.8 64,1.8 96,9 32,7.2 64,17.8 96,30.3 32,12.5 64,26.9 96,23.4 32,-3.5 64,-24.9 96,-36.5 32,-11.7 64,-13.7 96,-18.2 32,-4.5 64,-11.5 79.99996,-15 l 16,-3.5 L 960,0 C 924.81596,0 930.74887,-1.1865601 864,8.2 832,12.7 800,25.3 768,40.7 736,56 704,74 672,75.8 640,77.7 608,63.3 576,49.8 544,36.3 512,23.7 480,20 448,16.3 416,21.7 384,28.8 352,36 320,45 288,44.2 256,43.3 224,32.7 192,25.5 160,18.3 128,14.7 96.000001,11 62.859792,9.6280187 42.01451,14.45844 0,11 Z"
       fill="#f89519"
       id="path2"
       sodipodi:nodetypes="ccssssssscssccsccssccsscc" />
    <path
       d="m 0,191 16,-6.2 C 32,178.69999 64.000001,166.3 96.000001,154.69999 128,143 160,132 192,132.8 c 32,0.89999 64,13.5 96,17.2 32,3.69999 64,-1.7 96,-0.80001 C 416,150 448,157 480,166 c 32,9 64,20 96,30.8 32,10.89999 64,21.5 96,23.39999 C 704,222 736,215 768,202.5 c 32,-12.5 64,-30.5 96,-35 32,-4.5 64,4.5 79.99996,9 l 16,4.5 V 80.99999 C 927.1815,87.682939 898.74499,83.423836 864,89.5 832,94 800,96 768,107.69999 c -32,11.6 -64,33 -96,36.5 -32,3.5 -64,-10.89999 -96,-23.4 -32,-12.5 -64,-23.1 -96,-30.3 -32,-7.2 -64,-10.8 -96,-9 -32,1.8 -64,9.2 -96,6.5 -32,-2.7 -64,-15.3 -96,-23.5 -32,-8.2 -63.94236,-11.22537 -95.999999,-8.3 C 30.01209,62.221614 59.130858,59.452185 0,71 Z"
       fill="#f8b12d"
       id="path3"
       sodipodi:nodetypes="ccccscsccsssccscssssssscc" />
    <path
       d="m 4e-5,540 h 16 80.000001 95.999999 96 96 96 96 96 96 96 H 944 960 l -4e-5,-365 C 937.03511,184.09276 896.91365,148.19284 864,151.5 832,156 800,174 768,186.5 736,199 704,206 672,204.19999 640,202.3 608,191.69999 576,180.8 544,170 512,159 480,150 448,141 416,134 384,133.19999 352,132.3 320,137.69999 288,134 256,130.3 224,117.69999 192,116.8 160,116 128,127 96.000001,138.69999 65.469899,151.44618 26.475272,174.24845 0,165 Z"
       fill="#f7cb46"
       id="path4"
       sodipodi:nodetypes="ccccccccccccccssccscscccc" />
  </g>
</svg>
